{
    "asset" : {
        "generator" : "Khronos glTF Blender I/O v0.9.35",
        "version" : "2.0"
    },
    "scene" : 0,
    "scenes" : [
        {
            "name" : "Scene",
            "nodes" : [
                0,
                1
            ]
        }
    ],
    "nodes" : [
        {
            "name" : "Lamp.003"
        },
        {
            "mesh" : 0,
            "name" : "Plane.002",
            "translation" : [
                -0.02316223829984665,
                -0.21723070740699768,
                -0.01590120419859886
            ]
        }
    ],
    "materials" : [
        {
            "doubleSided" : true,
            "emissiveFactor" : [
                0,
                0,
                0
            ],
            "name" : "Material.004",
            "pbrMetallicRoughness" : {
                "baseColorFactor" : [
                    0.1651465743780136,
                    0.3154568076133728,
                    0.08628977090120316,
                    1
                ],
                "metallicFactor" : 0,
                "roughnessFactor" : 0.6000000238418579
            }
        },
        {
            "doubleSided" : true,
            "emissiveFactor" : [
                0,
                0,
                0
            ],
            "name" : "Material.003",
            "pbrMetallicRoughness" : {
                "baseColorFactor" : [
                    0.5978448987007141,
                    0.4331640601158142,
                    0.1715322732925415,
                    1
                ],
                "metallicFactor" : 0,
                "roughnessFactor" : 0.6000000238418579
            }
        }
    ],
    "meshes" : [
        {
            "name" : "Plane",
            "primitives" : [
                {
                    "attributes" : {
                        "POSITION" : 0,
                        "NORMAL" : 1
                    },
                    "indices" : 2,
                    "material" : 0
                },
                {
                    "attributes" : {
                        "POSITION" : 3,
                        "NORMAL" : 4
                    },
                    "indices" : 5,
                    "material" : 1
                }
            ]
        }
    ],
    "accessors" : [
        {
            "bufferView" : 0,
            "componentType" : 5126,
            "count" : 223,
            "max" : [
                1.4210022687911987,
                0.21723070740699768,
                1.4139012098312378
            ],
            "min" : [
                -1.374037742614746,
                -0.216769278049469,
                -1.381138801574707
            ],
            "type" : "VEC3"
        },
        {
            "bufferView" : 1,
            "componentType" : 5126,
            "count" : 223,
            "type" : "VEC3"
        },
        {
            "bufferView" : 2,
            "componentType" : 5123,
            "count" : 858,
            "type" : "SCALAR"
        },
        {
            "bufferView" : 3,
            "componentType" : 5126,
            "count" : 834,
            "max" : [
                1.3011250495910645,
                0.07989448308944702,
                1.2940102815628052
            ],
            "min" : [
                -1.2542154788970947,
                -1.0243077278137207,
                -1.261330246925354
            ],
            "type" : "VEC3"
        },
        {
            "bufferView" : 4,
            "componentType" : 5126,
            "count" : 834,
            "type" : "VEC3"
        },
        {
            "bufferView" : 5,
            "componentType" : 5123,
            "count" : 1242,
            "type" : "SCALAR"
        }
    ],
    "bufferViews" : [
        {
            "buffer" : 0,
            "byteLength" : 2676,
            "byteOffset" : 0
        },
        {
            "buffer" : 0,
            "byteLength" : 2676,
            "byteOffset" : 2676
        },
        {
            "buffer" : 0,
            "byteLength" : 1716,
            "byteOffset" : 5352
        },
        {
            "buffer" : 0,
            "byteLength" : 10008,
            "byteOffset" : 7068
        },
        {
            "buffer" : 0,
            "byteLength" : 10008,
            "byteOffset" : 17076
        },
        {
            "buffer" : 0,
            "byteLength" : 2484,
            "byteOffset" : 27084
        }
    ],
    "buffers" : [
        {
            "byteLength" : 29568,
            "uri" : "data:application/octet-stream;base64,"
        }
    ]
}
